<svg width="50" height="51" viewBox="0 0 50 51" fill="none" xmlns="http://www.w3.org/2000/svg">
<path d="M44.9199 0H4.27926C1.91589 0 0 1.9596 0 4.37689V45.9447C0 48.362 1.91589 50.3216 4.27926 50.3216H44.9199C47.2833 50.3216 49.1992 48.362 49.1992 45.9447V4.37689C49.1992 1.9596 47.2833 0 44.9199 0Z" fill="#F98012"/>
<path d="M9 20.8598C9.15041 20.4569 9.45691 20.2597 9.85422 20.1197C14.5765 18.451 19.2932 16.7737 24.0126 15.0908C24.3447 14.9736 24.654 14.9679 24.9832 15.0851C29.7282 16.7737 34.4761 18.4596 39.2239 20.1454C39.8568 20.3711 40.1292 20.8455 39.9419 21.3741C39.8397 21.6627 39.6354 21.8455 39.3544 21.9484C38.9089 22.1113 38.4662 22.277 38.0178 22.4256C37.8674 22.4742 37.8163 22.5456 37.8163 22.7056C37.822 25.5401 37.8163 28.3717 37.8276 31.2062C37.8276 31.2976 37.9099 31.4319 37.9922 31.4719C39.0593 32.0034 39.6553 32.852 39.6326 34.0578C39.6099 35.2493 38.994 36.0751 37.9213 36.5637C37.8929 36.5752 37.8674 36.5923 37.822 36.6152C37.822 37.7438 37.822 38.8782 37.822 40.0154C37.822 40.4926 37.5694 40.8497 37.1664 40.964C36.579 41.1298 36.0142 40.704 36.0114 40.0697C36.0029 39.0039 36.0029 37.9381 36.0114 36.8723C36.0114 36.6723 35.9546 36.5837 35.7701 36.4923C34.7712 35.998 34.2121 35.1836 34.1951 34.055C34.1752 32.9006 34.7201 32.0548 35.7361 31.5377C35.9546 31.4262 36.0114 31.3119 36.0114 31.0805C36.0029 28.5517 36.0057 26.023 36.0057 23.4942V23.1513C35.37 23.3771 34.7655 23.5914 34.161 23.8085C33.8016 23.9381 33.6218 24.1943 33.6218 24.5772C33.6218 26.283 33.6077 27.9888 33.6304 29.6947C33.6389 30.4004 33.3664 30.929 32.8272 31.3434C32.044 31.9463 31.1358 32.2834 30.205 32.552C27.7331 33.2635 25.2131 33.4464 22.6589 33.2406C20.9846 33.1063 19.3357 32.8206 17.772 32.1863C17.1817 31.9463 16.6198 31.6091 16.0891 31.2491C15.5868 30.9062 15.3768 30.3776 15.3825 29.7461C15.3967 27.9488 15.3825 26.1516 15.3967 24.3543C15.3967 24.0657 15.3002 23.9571 15.0448 23.8657C13.3136 23.2571 11.5939 22.6256 9.86273 22.0227C9.46542 21.8855 9.16176 21.6827 9.00851 21.2826V20.8569L9 20.8598ZM36.3462 21.0798C36.21 21.0283 36.1306 20.994 36.0483 20.9655C32.2909 19.6282 28.5306 18.291 24.7704 16.9652C24.6086 16.908 24.3901 16.9109 24.2255 16.9652C21.1179 18.0567 18.0133 19.1596 14.9086 20.2626C14.1735 20.5226 13.4414 20.7883 12.6581 21.0683C12.7943 21.1255 12.8766 21.1626 12.9617 21.1912C16.7362 22.5427 20.5106 23.8943 24.2907 25.2372C24.4355 25.2886 24.6285 25.2715 24.776 25.2201C28.0141 24.0714 31.2465 22.9113 34.4817 21.7541C35.0862 21.5369 35.6907 21.3169 36.3491 21.0769L36.3462 21.0798ZM17.213 24.6572C17.2044 24.8086 17.1959 24.9086 17.1959 25.0058C17.1959 26.5202 17.2016 28.0317 17.1903 29.5461C17.1903 29.7832 17.2612 29.9433 17.4684 30.029C18.1466 30.309 18.8079 30.6519 19.5088 30.8433C22.4801 31.6577 25.4827 31.6948 28.4965 31.0948C29.5352 30.889 30.554 30.6004 31.4849 30.0604C31.7062 29.9318 31.8084 29.7804 31.8056 29.5032C31.7914 28.0117 31.7999 26.5173 31.7971 25.0229C31.7971 24.9143 31.7885 24.8086 31.78 24.6686C31.641 24.7115 31.5388 24.7429 31.4366 24.7772C29.3025 25.5401 27.1656 26.3001 25.0343 27.0745C24.6739 27.2059 24.3418 27.2145 23.9786 27.0802C22.7583 26.6287 21.5323 26.2001 20.3091 25.7601C19.296 25.3972 18.28 25.0343 17.213 24.6543V24.6572ZM36.894 34.9293C37.3793 34.935 37.8021 34.5236 37.8163 34.0321C37.8305 33.5178 37.4275 33.0978 36.9138 33.0921C36.4115 33.0863 36.0057 33.4807 35.9943 33.9807C35.983 34.4922 36.3917 34.9236 36.894 34.9293Z" fill="white"/>
</svg>
